<svg xmlns="http://www.w3.org/2000/svg" viewBox="0 0 275.63 36"><defs><style>.cls-1{fill:#ffc33c;}.cls-2{fill:#fff;}</style></defs><g id="Layer_2" data-name="Layer 2"><g id="Review_Design" data-name="Review Design"><path class="cls-1" d="M275.52,29.33h-.79v-.78h.79Z"/><path class="cls-1" d="M271.53,25.71a2.42,2.42,0,0,1,.06-.54,1.62,1.62,0,0,1,.16-.44h.53a3.59,3.59,0,0,0-.14.48,1.61,1.61,0,0,0-.05.44,1.53,1.53,0,0,0,.07.47,1.23,1.23,0,0,0,.26.42,1.29,1.29,0,0,0,.47.29,2,2,0,0,0,.73.12,1.81,1.81,0,0,0,.58-.09,1.21,1.21,0,0,0,.46-.25,1.27,1.27,0,0,0,.31-.41,1.5,1.5,0,0,0,.1-.58,2,2,0,0,0-.05-.48,2.54,2.54,0,0,0-.14-.47h.53l.08.18a1.82,1.82,0,0,1,.07.25,2.18,2.18,0,0,1,.05.29c0,.1,0,.2,0,.3a2.25,2.25,0,0,1-.12.74,1.63,1.63,0,0,1-.37.62,1.72,1.72,0,0,1-.62.41,2.4,2.4,0,0,1-.89.15,2.84,2.84,0,0,1-.69-.08,1.81,1.81,0,0,1-.55-.22A1.76,1.76,0,0,1,272,27a2,2,0,0,1-.27-.4,1.76,1.76,0,0,1-.15-.44A1.65,1.65,0,0,1,271.53,25.71Z"/><path class="cls-1" d="M273.58,20.4a2.74,2.74,0,0,1,.84.13,2.11,2.11,0,0,1,.64.37,1.73,1.73,0,0,1,.42.58,1.92,1.92,0,0,1,.15.77,1.86,1.86,0,0,1-.15.77,1.67,1.67,0,0,1-.42.59,1.9,1.9,0,0,1-.64.36,2.78,2.78,0,0,1-1.68,0,2,2,0,0,1-.65-.37,1.7,1.7,0,0,1-.41-.58,1.92,1.92,0,0,1-.15-.77,1.89,1.89,0,0,1,.15-.77,1.65,1.65,0,0,1,.41-.59,2,2,0,0,1,.65-.36A2.74,2.74,0,0,1,273.58,20.4Zm0,.67a2.49,2.49,0,0,0-.64.08,1.5,1.5,0,0,0-.47.25,1.1,1.1,0,0,0-.3.38,1,1,0,0,0-.1.47,1.12,1.12,0,0,0,.1.48,1.07,1.07,0,0,0,.3.37,1.32,1.32,0,0,0,.47.25,2.32,2.32,0,0,0,1.28,0,1.32,1.32,0,0,0,.47-.25,1.1,1.1,0,0,0,.3-.38,1.2,1.2,0,0,0,.1-.47,1.25,1.25,0,0,0-.1-.48,1.17,1.17,0,0,0-.3-.37,1.5,1.5,0,0,0-.47-.25A2.49,2.49,0,0,0,273.58,21.07Z"/><path class="cls-1" d="M275.52,16.39V17H273a1.35,1.35,0,0,0-.43.06.63.63,0,0,0-.29.16.53.53,0,0,0-.17.25.79.79,0,0,0-.06.32,1.11,1.11,0,0,0,.19.62,1.83,1.83,0,0,0,.5.5h2.76v.64h-3.89v-.5l.54-.12h0a2.73,2.73,0,0,1-.25-.23,1.31,1.31,0,0,1-.2-.28,1.28,1.28,0,0,1-.14-.34,1.68,1.68,0,0,1-.05-.4,1.18,1.18,0,0,1,.21-.72,1.33,1.33,0,0,1,.57-.44v0a1.87,1.87,0,0,1-.57-.59,1.42,1.42,0,0,1-.21-.78,1.71,1.71,0,0,1,.06-.43,1,1,0,0,1,.21-.43,1.29,1.29,0,0,1,.42-.32,1.73,1.73,0,0,1,.7-.12h2.6v.63H273a1.35,1.35,0,0,0-.43.06.63.63,0,0,0-.29.16.53.53,0,0,0-.17.25.79.79,0,0,0-.06.32,1.11,1.11,0,0,0,.19.62,1.86,1.86,0,0,0,.5.51Z"/><path class="cls-2" d="M53,17h-.31a8,8,0,0,0-3,.51,4.15,4.15,0,0,0-2,1.55V29.18H44V14.12h3l.34,2.1h.06a4.81,4.81,0,0,1,1.8-1.81A5.37,5.37,0,0,1,52,13.75a6.65,6.65,0,0,1,1,.06Z"/><path class="cls-2" d="M62,26.6a12.63,12.63,0,0,0,2.24-.21,17.56,17.56,0,0,0,2.36-.63V28.7a10.19,10.19,0,0,1-2.19.59,16.05,16.05,0,0,1-3.06.28,10.79,10.79,0,0,1-3-.41,6.59,6.59,0,0,1-2.51-1.33,6.4,6.4,0,0,1-1.7-2.38,8.9,8.9,0,0,1-.63-3.54A10,10,0,0,1,54,18.32a7.1,7.1,0,0,1,1.59-2.55,6.62,6.62,0,0,1,2.27-1.52,7.33,7.33,0,0,1,2.65-.5,7.74,7.74,0,0,1,2.64.43,5.29,5.29,0,0,1,2.08,1.37A6.36,6.36,0,0,1,66.62,18a11.24,11.24,0,0,1,.49,3.48c0,.52,0,1,0,1.32H57.19a4.48,4.48,0,0,0,.47,1.78,3.51,3.51,0,0,0,1,1.2,4.16,4.16,0,0,0,1.46.66A7.51,7.51,0,0,0,62,26.6Zm-1.47-10a2.84,2.84,0,0,0-2.19,1,3.7,3.7,0,0,0-.63,1,5.28,5.28,0,0,0-.31,1.26h5.92a4.73,4.73,0,0,0-.17-1.26,3.24,3.24,0,0,0-.53-1,2.57,2.57,0,0,0-.87-.7A2.77,2.77,0,0,0,60.49,16.62Z"/><path class="cls-2" d="M82.88,14.12,77.05,29.18H73.4L67.55,14.12h3.89l2.1,5.75q.9,2.43,1.64,4.85h.07q.65-2.1,1.61-4.75L79,14.12Z"/><path class="cls-2" d="M84.1,6.68H88v4H84.1Zm.09,7.44h3.69V29.18H84.19Z"/><path class="cls-2" d="M98.82,26.6a12.52,12.52,0,0,0,2.23-.21,18.1,18.1,0,0,0,2.37-.63V28.7a10.55,10.55,0,0,1-2.19.59,16.23,16.23,0,0,1-3.07.28,10.79,10.79,0,0,1-3-.41,6.59,6.59,0,0,1-2.51-1.33,6.4,6.4,0,0,1-1.7-2.38,8.9,8.9,0,0,1-.63-3.54,10,10,0,0,1,.59-3.59,7.24,7.24,0,0,1,1.59-2.55,6.56,6.56,0,0,1,2.28-1.52,7.25,7.25,0,0,1,2.65-.5,7.68,7.68,0,0,1,2.63.43,5.29,5.29,0,0,1,2.08,1.37,6.36,6.36,0,0,1,1.37,2.4,10.94,10.94,0,0,1,.49,3.48c0,.52,0,1,0,1.32H94a4.48,4.48,0,0,0,.47,1.78,3.51,3.51,0,0,0,1,1.2,4.29,4.29,0,0,0,1.47.66A7.45,7.45,0,0,0,98.82,26.6Zm-1.48-10a2.88,2.88,0,0,0-2.19,1,3.45,3.45,0,0,0-.62,1,5.3,5.3,0,0,0-.32,1.26h5.93a4.36,4.36,0,0,0-.18-1.26,3.24,3.24,0,0,0-.53-1,2.39,2.39,0,0,0-.87-.7A2.77,2.77,0,0,0,97.34,16.62Z"/><path class="cls-2" d="M116.3,18.21c-.29,1.5-.64,3-1,4.37l-1.82,6.6h-3.62l-5.27-15.06h3.89l1.94,6.31c.45,1.46.84,2.88,1.18,4.25h.06c.29-1.33.64-2.74,1-4.25l1.73-6.31h3.89L120,20.43c.36,1.34.71,2.75,1,4.25h.07c.35-1.4.74-2.82,1.18-4.25l1.94-6.31h3.89l-5.27,15.06H119.2l-1.81-6.6c-.42-1.48-.76-2.94-1-4.37Z"/><path class="cls-2" d="M129,22a8.31,8.31,0,0,1,1.78-5.58,5.93,5.93,0,0,1,4.73-2.09,5.84,5.84,0,0,1,4.72,2.09A8.34,8.34,0,0,1,142,22a8.24,8.24,0,0,1-1.79,5.51,5.85,5.85,0,0,1-4.68,2.1,5.92,5.92,0,0,1-4.74-2.07A8.26,8.26,0,0,1,129,22Zm11.67,0a7.5,7.5,0,0,0-1.39-4.77,5,5,0,0,0-7.57,0A7.45,7.45,0,0,0,130.3,22a7.33,7.33,0,0,0,1.39,4.72,4.62,4.62,0,0,0,3.81,1.74,4.55,4.55,0,0,0,3.78-1.73A7.4,7.4,0,0,0,140.66,22Z"/><path class="cls-2" d="M145.17,23.62v-9h1.24v9.26a4.56,4.56,0,0,0,1.11,3.44,4.22,4.22,0,0,0,3,1.05,4.71,4.71,0,0,0,2.3-.51,3.29,3.29,0,0,0,1.38-1.41,5.93,5.93,0,0,0,.46-2.63v-9.2h1.24v9a9.51,9.51,0,0,1-.31,2.74,4.32,4.32,0,0,1-1.05,1.75,4.58,4.58,0,0,1-1.73,1.09,6.64,6.64,0,0,1-2.22.34,6.75,6.75,0,0,1-2.38-.39,4.78,4.78,0,0,1-1.73-1.11,4.28,4.28,0,0,1-1-1.65A9.46,9.46,0,0,1,145.17,23.62Z"/><path class="cls-2" d="M161.19,14.67l.21,2.58h0a6.62,6.62,0,0,1,2.44-2.12,6.81,6.81,0,0,1,3.24-.84h.4v1.23h-.4a6.64,6.64,0,0,0-5.68,3.37V29.18h-1.24V14.67Z"/><path class="cls-2" d="M175.57,24.82a1.19,1.19,0,0,0-.27-.8,2.23,2.23,0,0,0-.72-.52,6.19,6.19,0,0,0-1-.36c-.39-.11-.8-.21-1.22-.31s-1.06-.32-1.56-.51a4.53,4.53,0,0,1-1.31-.75,3.23,3.23,0,0,1-.9-1.18,3.92,3.92,0,0,1-.34-1.73,4.9,4.9,0,0,1,.45-2.18A4.29,4.29,0,0,1,169.89,15a5.13,5.13,0,0,1,1.79-.91,8,8,0,0,1,2.15-.29,14.32,14.32,0,0,1,2.6.22,13.34,13.34,0,0,1,2.19.59v3c-.34-.12-.7-.22-1.08-.32s-.76-.19-1.15-.26l-1.16-.18a10.47,10.47,0,0,0-1.09-.07,3.9,3.9,0,0,0-1.1.13,2.15,2.15,0,0,0-.73.33,1.32,1.32,0,0,0-.41.48,1.42,1.42,0,0,0-.12.57,1.28,1.28,0,0,0,.27.84,2,2,0,0,0,.76.53,6.29,6.29,0,0,0,1,.33l1,.26a15.25,15.25,0,0,1,1.56.45,4.93,4.93,0,0,1,1.4.74,3.66,3.66,0,0,1,1,1.23,4.15,4.15,0,0,1,.39,1.92,4.84,4.84,0,0,1-.48,2.22,4.37,4.37,0,0,1-1.35,1.58,5.82,5.82,0,0,1-2.06.93,11,11,0,0,1-2.65.3,13.49,13.49,0,0,1-2.58-.22,8.27,8.27,0,0,1-1.88-.57v-3a11.83,11.83,0,0,0,2.23.62,13.42,13.42,0,0,0,1.92.16,7.27,7.27,0,0,0,1.27-.1,4,4,0,0,0,1-.32,2.08,2.08,0,0,0,.68-.55A1.35,1.35,0,0,0,175.57,24.82Z"/><path class="cls-2" d="M189.2,26.6a12.63,12.63,0,0,0,2.24-.21,18,18,0,0,0,2.36-.63V28.7a10.37,10.37,0,0,1-2.19.59,16.13,16.13,0,0,1-3.06.28,10.79,10.79,0,0,1-3-.41A6.52,6.52,0,0,1,183,27.83a6.29,6.29,0,0,1-1.7-2.38,8.9,8.9,0,0,1-.63-3.54,9.83,9.83,0,0,1,.59-3.59,7.22,7.22,0,0,1,1.58-2.55,6.66,6.66,0,0,1,2.28-1.52,7.29,7.29,0,0,1,2.65-.5,7.78,7.78,0,0,1,2.64.43,5.36,5.36,0,0,1,2.08,1.37,6.49,6.49,0,0,1,1.37,2.4,11.24,11.24,0,0,1,.49,3.48c0,.52,0,1,0,1.32h-9.87a4.65,4.65,0,0,0,.46,1.78,3.51,3.51,0,0,0,1,1.2,4.29,4.29,0,0,0,1.47.66A7.51,7.51,0,0,0,189.2,26.6Zm-1.48-10a2.89,2.89,0,0,0-1.24.26,2.82,2.82,0,0,0-.94.7,3.7,3.7,0,0,0-.63,1,4.84,4.84,0,0,0-.31,1.26h5.92a4.36,4.36,0,0,0-.18-1.26,3.05,3.05,0,0,0-.53-1,2.39,2.39,0,0,0-.87-.7A2.71,2.71,0,0,0,187.72,16.62Z"/><path class="cls-2" d="M205.76,17h-.31a8,8,0,0,0-3,.51,4.15,4.15,0,0,0-2,1.55V29.18h-3.68V14.12h3.05l.34,2.1h.06a4.81,4.81,0,0,1,1.8-1.81,5.37,5.37,0,0,1,2.74-.66,6.65,6.65,0,0,1,1,.06Z"/><path class="cls-2" d="M220.45,14.12l-5.83,15.06H211l-5.85-15.06H209l2.1,5.75q.9,2.43,1.64,4.85h.06q.66-2.1,1.62-4.75l2.1-5.85Z"/><path class="cls-2" d="M221.67,6.68h3.87v4h-3.87Zm.09,7.44h3.69V29.18h-3.69Z"/><path class="cls-2" d="M239.48,28.86a9.27,9.27,0,0,1-1.71.5,10.54,10.54,0,0,1-2.13.21,9.7,9.7,0,0,1-3-.46,6.89,6.89,0,0,1-2.47-1.42,6.41,6.41,0,0,1-1.66-2.4,8.67,8.67,0,0,1-.61-3.4,9,9,0,0,1,.7-3.73,7.35,7.35,0,0,1,1.81-2.52,7,7,0,0,1,2.5-1.43,8.67,8.67,0,0,1,2.75-.46,10.22,10.22,0,0,1,1.94.18,8.62,8.62,0,0,1,1.69.49v3a8.22,8.22,0,0,0-1.45-.48,7.19,7.19,0,0,0-1.65-.18,5.32,5.32,0,0,0-1.7.28,3.8,3.8,0,0,0-1.43.86,4.19,4.19,0,0,0-1,1.56,6.77,6.77,0,0,0-.36,2.34,6,6,0,0,0,.28,1.87,4.16,4.16,0,0,0,.81,1.5,4,4,0,0,0,1.37,1,4.77,4.77,0,0,0,2,.38,8,8,0,0,0,1.83-.2,13.58,13.58,0,0,0,1.56-.5Z"/><path class="cls-2" d="M249.47,26.6a12.52,12.52,0,0,0,2.23-.21,18.1,18.1,0,0,0,2.37-.63V28.7a10.55,10.55,0,0,1-2.19.59,16.23,16.23,0,0,1-3.07.28,10.84,10.84,0,0,1-3-.41,6.67,6.67,0,0,1-2.51-1.33,6.4,6.4,0,0,1-1.7-2.38,8.9,8.9,0,0,1-.63-3.54,10,10,0,0,1,.59-3.59,7.24,7.24,0,0,1,1.59-2.55,6.56,6.56,0,0,1,2.28-1.52,7.25,7.25,0,0,1,2.65-.5,7.68,7.68,0,0,1,2.63.43,5.29,5.29,0,0,1,2.08,1.37,6.23,6.23,0,0,1,1.37,2.4,10.94,10.94,0,0,1,.49,3.48c0,.52,0,1-.05,1.32h-9.87a4.65,4.65,0,0,0,.47,1.78,3.51,3.51,0,0,0,1,1.2,4.29,4.29,0,0,0,1.47.66A7.45,7.45,0,0,0,249.47,26.6Zm-1.48-10a2.88,2.88,0,0,0-2.19,1,3.45,3.45,0,0,0-.62,1,5.3,5.3,0,0,0-.32,1.26h5.93a4.36,4.36,0,0,0-.18-1.26,3.24,3.24,0,0,0-.53-1,2.39,2.39,0,0,0-.87-.7A2.74,2.74,0,0,0,248,16.62Z"/><path class="cls-2" d="M263.74,24.82a1.19,1.19,0,0,0-.27-.8,2.23,2.23,0,0,0-.72-.52,6.19,6.19,0,0,0-1-.36c-.39-.11-.8-.21-1.22-.31s-1.06-.32-1.56-.51a4.67,4.67,0,0,1-1.31-.75,3.23,3.23,0,0,1-.9-1.18,3.92,3.92,0,0,1-.34-1.73,4.9,4.9,0,0,1,.45-2.18A4.29,4.29,0,0,1,258.06,15a5.22,5.22,0,0,1,1.79-.91,8,8,0,0,1,2.15-.29,14.24,14.24,0,0,1,2.6.22,13.34,13.34,0,0,1,2.19.59v3c-.34-.12-.7-.22-1.08-.32s-.76-.19-1.15-.26-.77-.13-1.16-.18a10.47,10.47,0,0,0-1.09-.07,3.9,3.9,0,0,0-1.1.13,2.15,2.15,0,0,0-.73.33,1.2,1.2,0,0,0-.4.48,1.39,1.39,0,0,0,.14,1.41,2.07,2.07,0,0,0,.76.53,6.63,6.63,0,0,0,1,.33l1,.26a15.25,15.25,0,0,1,1.56.45,4.93,4.93,0,0,1,1.4.74,3.66,3.66,0,0,1,1,1.23,4.15,4.15,0,0,1,.39,1.92,4.84,4.84,0,0,1-.48,2.22,4.44,4.44,0,0,1-1.34,1.58,6,6,0,0,1-2.07.93,11,11,0,0,1-2.65.3,13.31,13.31,0,0,1-2.57-.22,8.21,8.21,0,0,1-1.89-.57v-3a11.71,11.71,0,0,0,2.24.62,13.29,13.29,0,0,0,1.91.16,7.27,7.27,0,0,0,1.27-.1,3.71,3.71,0,0,0,1-.32,2,2,0,0,0,.68-.55A1.35,1.35,0,0,0,263.74,24.82Z"/><path class="cls-1" d="M18.93,13.29l1.51,2.25,0-5.44,3.37,1.15L18.93,0,14,11.25,17.4,10.1v5.44Z"/><path class="cls-1" d="M12.64,17.86l2.61-.75-5.18-1.69,2.15-2.86L0,13.75l9.18,8.14,0-3.57L14.31,20Z"/><path class="cls-1" d="M15,25.25l.1-2.71-3.21,4.39L9.87,24,7.23,36l10.58-6.22L14.4,28.73l3.19-4.41Z"/><path class="cls-1" d="M22.81,25.25l-2.55-.93,3.19,4.41L20,29.78,30.62,36,28,24l-2.05,2.92-3.21-4.39Z"/><path class="cls-1" d="M25.22,17.86,23.54,20l5.18-1.67,0,3.57,9.18-8.14L25.64,12.56l2.14,2.86-5.17,1.69Z"/></g></g></svg>