<svg xmlns="http://www.w3.org/2000/svg" viewBox="0 0 154.3 21.26"><defs><style>.cls-1,.cls-2{fill:#79b5db;}.cls-1{stroke:#79b5db;stroke-miterlimit:10;stroke-width:0.24px;}.cls-3{fill:#fff;}</style></defs><g id="Layer_2" data-name="Layer 2"><g id="Layer_6" data-name="Layer 6"><path class="cls-1" d="M85.66,6.58a4.7,4.7,0,0,0-3.4-1.44A4.44,4.44,0,0,0,79,6.58a4.56,4.56,0,0,0-1.27,2.56,9,9,0,0,0,.64,4,10.21,10.21,0,0,1,.75,3.33A2.67,2.67,0,0,1,76.23,19,3.31,3.31,0,0,1,74,18a3.67,3.67,0,0,1-.62-.79,4.24,4.24,0,0,1-2,.51h-.18a7,7,0,0,0,1.38,1.91,5.21,5.21,0,0,0,3.78,1.55A4.93,4.93,0,0,0,80,19.56,4.56,4.56,0,0,0,81.23,17a10.36,10.36,0,0,0-.72-4.2,9,9,0,0,1-.67-3.22,2.5,2.5,0,0,1,.67-1.63,2.23,2.23,0,0,1,1.74-.67A2.65,2.65,0,0,1,84.11,8a4.4,4.4,0,0,1,1.18,2.39,4.23,4.23,0,0,1,1.93-1A5.8,5.8,0,0,0,85.66,6.58Z"/><path class="cls-2" d="M71.33,17.69a4.2,4.2,0,1,1,4.2-4.2A4.21,4.21,0,0,1,71.33,17.69Zm0-6.59a2.39,2.39,0,1,0,2.39,2.39A2.39,2.39,0,0,0,71.33,11.1Z"/><path class="cls-2" d="M88.14,17.69a4.2,4.2,0,1,1,4.2-4.2A4.21,4.21,0,0,1,88.14,17.69Zm0-6.59a2.39,2.39,0,1,0,2.39,2.39A2.39,2.39,0,0,0,88.14,11.1Z"/><path class="cls-3" d="M.47.43A1.72,1.72,0,0,1,1.7,0,1.72,1.72,0,0,1,2.93.43,1.4,1.4,0,0,1,3.4,1.54a1.42,1.42,0,0,1-.47,1.11,1.77,1.77,0,0,1-1.23.42A1.77,1.77,0,0,1,.47,2.65,1.46,1.46,0,0,1,0,1.54,1.43,1.43,0,0,1,.47.43ZM2.93,6V21H.44V6Z"/><path class="cls-3" d="M18.57,7.39a6.77,6.77,0,0,1,1.62,4.87V21h-2.5V12.48A4.82,4.82,0,0,0,16.54,9a4.14,4.14,0,0,0-3.13-1.2,4.26,4.26,0,0,0-3.29,1.33A5.51,5.51,0,0,0,8.89,13v8H6.39V6h2.5V9.52a5.1,5.1,0,0,1,2-2.83,5.92,5.92,0,0,1,3.39-1A5.64,5.64,0,0,1,18.57,7.39Z"/><path class="cls-3" d="M30.66,18.82V21H28.8a4.79,4.79,0,0,1-3.44-1.1,4.93,4.93,0,0,1-1.14-3.67V8.12H22V6h2.25V2.19h2.52V6h3.9V8.12h-3.9v8.17a2.81,2.81,0,0,0,.54,2,2.54,2.54,0,0,0,1.85.54Z"/><path class="cls-3" d="M46.9,14h-12a5.27,5.27,0,0,0,1.47,3.86,4.78,4.78,0,0,0,3.39,1.29,4.87,4.87,0,0,0,3-.92,3.79,3.79,0,0,0,1.49-2.45H46.9a6.29,6.29,0,0,1-3.67,4.72,8.27,8.27,0,0,1-3.41.68A7.8,7.8,0,0,1,36,20.27a6.58,6.58,0,0,1-2.61-2.67,8.4,8.4,0,0,1-.95-4.11,8.43,8.43,0,0,1,.95-4.11A6.57,6.57,0,0,1,36,6.69a7.8,7.8,0,0,1,3.84-.93,7.6,7.6,0,0,1,3.83.93,6.46,6.46,0,0,1,2.5,2.5A7.06,7.06,0,0,1,47,12.64,7.79,7.79,0,0,1,46.9,14Zm-3-4a4,4,0,0,0-1.73-1.67,5.22,5.22,0,0,0-2.39-.55,4.88,4.88,0,0,0-3.45,1.28,5.12,5.12,0,0,0-1.51,3.74h9.63A5.17,5.17,0,0,0,43.94,10Z"/><path class="cls-3" d="M52.22.71V21H49.73V.71Z"/><path class="cls-3" d="M58.17.71V21H55.68V.71Z"/><path class="cls-3" d="M61.66.43A1.72,1.72,0,0,1,62.89,0a1.77,1.77,0,0,1,1.24.43,1.42,1.42,0,0,1,.46,1.11,1.45,1.45,0,0,1-.46,1.11,1.81,1.81,0,0,1-1.24.42,1.77,1.77,0,0,1-1.23-.42,1.46,1.46,0,0,1-.47-1.11A1.43,1.43,0,0,1,61.66.43ZM64.13,6V21h-2.5V6Z"/><path class="cls-2" d="M106.79,7.39a6.77,6.77,0,0,1,1.62,4.87V21h-2.49V12.48A4.82,4.82,0,0,0,104.76,9a4.11,4.11,0,0,0-3.12-1.2,4.26,4.26,0,0,0-3.29,1.33A5.47,5.47,0,0,0,97.11,13v8H94.62V.71h2.49V9.52a5.16,5.16,0,0,1,2-2.83,5.86,5.86,0,0,1,3.38-1A5.61,5.61,0,0,1,106.79,7.39Z"/><path class="cls-2" d="M121.87,6.86A5.73,5.73,0,0,1,124,9.79V6h2.5V21H124V17.17a5.68,5.68,0,0,1-2.12,2.93,6.16,6.16,0,0,1-3.72,1.1,6.86,6.86,0,0,1-3.57-.93,6.41,6.41,0,0,1-2.45-2.67,8.86,8.86,0,0,1-.89-4.11,8.89,8.89,0,0,1,.89-4.11,6.41,6.41,0,0,1,2.45-2.69,6.86,6.86,0,0,1,3.57-.93A6.23,6.23,0,0,1,121.87,6.86Zm-6.7,2.59a5.67,5.67,0,0,0-1.38,4,5.68,5.68,0,0,0,1.38,4A4.85,4.85,0,0,0,118.86,19a5.11,5.11,0,0,0,2.65-.69,4.71,4.71,0,0,0,1.82-1.93,6.11,6.11,0,0,0,.66-2.9,6.17,6.17,0,0,0-.66-2.9,4.68,4.68,0,0,0-1.82-1.94A5.3,5.3,0,0,0,118.86,8,4.85,4.85,0,0,0,115.17,9.45Z"/><path class="cls-2" d="M134.85,6.57a6.41,6.41,0,0,1,3.4-.86V8.42h-.76A5.36,5.36,0,0,0,134,9.5a4.34,4.34,0,0,0-1.34,3.58V21h-2.5V6h2.5V9A5.49,5.49,0,0,1,134.85,6.57Z"/><path class="cls-2" d="M154.19,14h-12a5.23,5.23,0,0,0,1.47,3.86A4.77,4.77,0,0,0,147,19.17a4.83,4.83,0,0,0,3-.92,3.76,3.76,0,0,0,1.5-2.45h2.66a6.27,6.27,0,0,1-3.68,4.72,8.22,8.22,0,0,1-3.4.68,7.8,7.8,0,0,1-3.84-.93,6.61,6.61,0,0,1-2.62-2.67,8.51,8.51,0,0,1-.94-4.11,8.54,8.54,0,0,1,.94-4.11,6.6,6.6,0,0,1,2.62-2.69,7.8,7.8,0,0,1,3.84-.93,7.6,7.6,0,0,1,3.83.93,6.46,6.46,0,0,1,2.5,2.5,7.06,7.06,0,0,1,.86,3.45A7.79,7.79,0,0,1,154.19,14Zm-3-4a4,4,0,0,0-1.73-1.67,5.22,5.22,0,0,0-2.39-.55,4.88,4.88,0,0,0-3.45,1.28,5.08,5.08,0,0,0-1.51,3.74h9.63A5.17,5.17,0,0,0,151.23,10Z"/></g></g></svg>